<svg width="340" height="69" viewBox="0 0 340 69" fill="none" xmlns="http://www.w3.org/2000/svg">
<rect width="49.9846" height="11.686" rx="5.84299" transform="matrix(0.562148 -0.827036 0.746836 0.665009 294.887 50.8966)" fill="#011638"/>
<rect width="29.0507" height="11.2808" rx="5.64041" transform="matrix(-0.72131 -0.692612 0.59504 -0.803696 303.345 58.7663)" fill="#364156"/>
<path d="M47.4852 15.16C48.4772 15.352 49.2132 15.688 49.6932 16.168C50.2052 16.648 50.4612 17.208 50.4612 17.848C50.4612 18.904 50.1572 19.672 49.5492 20.152C48.9732 20.632 48.0452 20.824 46.7652 20.728C43.8852 20.504 41.6292 20.36 39.9972 20.296C38.3972 20.2 36.2852 20.136 33.6612 20.104C32.4772 25.992 31.3892 31.912 30.3972 37.864C30.0452 40.04 29.6772 42.568 29.2932 45.448C28.9092 48.296 28.6532 50.6 28.5252 52.36C28.4612 53.288 28.0772 54.008 27.3732 54.52C26.6692 55 25.8212 55.24 24.8292 55.24C23.7732 55.24 22.9572 54.984 22.3812 54.472C21.8052 53.96 21.5172 53.288 21.5172 52.456C21.5172 51.688 21.6292 50.424 21.8532 48.664C22.1092 46.872 22.3972 45 22.7172 43.048C23.0692 41.096 23.3412 39.4 23.5332 37.96C23.8852 35.528 24.2852 33.112 24.7332 30.712C25.1812 28.312 25.6292 26.04 26.0772 23.896C26.1732 23.416 26.2852 22.872 26.4132 22.264C26.5412 21.624 26.6852 20.92 26.8452 20.152C23.7092 20.248 21.2452 20.504 19.4532 20.92C17.6612 21.336 16.3812 21.928 15.6132 22.696C14.8772 23.432 14.5092 24.392 14.5092 25.576C14.5092 26.664 14.8292 27.704 15.4692 28.696C15.5972 28.92 15.6612 29.16 15.6612 29.416C15.6612 30.024 15.2932 30.6 14.5572 31.144C13.8532 31.656 13.1172 31.912 12.3492 31.912C11.8052 31.912 11.3572 31.752 11.0052 31.432C10.3652 30.888 9.83719 30.12 9.42119 29.128C9.00519 28.104 8.79719 26.952 8.79719 25.672C8.79719 22.952 9.67719 20.776 11.4372 19.144C13.2292 17.48 15.9332 16.264 19.5492 15.496C23.1972 14.728 27.8692 14.344 33.5652 14.344C37.0852 14.344 39.8852 14.408 41.9652 14.536C44.0772 14.664 45.9172 14.872 47.4852 15.16ZM44.2471 55.24C42.2631 55.24 40.6791 54.52 39.4951 53.08C38.3111 51.64 37.7191 49.752 37.7191 47.416C37.7191 44.856 38.3111 42.44 39.4951 40.168C40.6791 37.864 42.2471 36.024 44.1991 34.648C46.1831 33.24 48.2791 32.536 50.4871 32.536C51.1911 32.536 51.6551 32.68 51.8791 32.968C52.1351 33.224 52.3431 33.704 52.5031 34.408C53.1751 34.28 53.8791 34.216 54.6151 34.216C56.1831 34.216 56.9671 34.776 56.9671 35.896C56.9671 36.568 56.7271 38.168 56.2471 40.696C55.5111 44.376 55.1431 46.936 55.1431 48.376C55.1431 48.856 55.2551 49.24 55.4791 49.528C55.7351 49.816 56.0551 49.96 56.4391 49.96C57.0471 49.96 57.7831 49.576 58.6471 48.808C59.5111 48.008 60.6791 46.728 62.1511 44.968C62.5351 44.52 62.9671 44.296 63.4471 44.296C63.8631 44.296 64.1831 44.488 64.4071 44.872C64.6631 45.256 64.7911 45.784 64.7911 46.456C64.7911 47.736 64.4871 48.728 63.8791 49.432C62.5671 51.064 61.1751 52.44 59.7031 53.56C58.2311 54.68 56.8071 55.24 55.4311 55.24C54.3751 55.24 53.3991 54.888 52.5031 54.184C51.6391 53.448 50.9831 52.456 50.5351 51.208C48.8711 53.896 46.7751 55.24 44.2471 55.24ZM45.9751 50.392C46.6791 50.392 47.3511 49.976 47.9911 49.144C48.6311 48.312 49.0951 47.208 49.3831 45.832L51.1591 37C49.8151 37.032 48.5671 37.544 47.4151 38.536C46.2951 39.496 45.3991 40.776 44.7271 42.376C44.0551 43.976 43.7191 45.672 43.7191 47.464C43.7191 48.456 43.9111 49.192 44.2951 49.672C44.7111 50.152 45.2711 50.392 45.9751 50.392ZM69.8179 56.296C68.1539 56.296 66.8739 55.912 65.9779 55.144C65.1139 54.376 64.6819 53.512 64.6819 52.552C64.6819 51.72 64.9859 51 65.5939 50.392C66.2019 49.784 67.0979 49.48 68.2819 49.48C68.6979 49.48 69.1779 49.528 69.7219 49.624C70.2979 49.688 70.7299 49.736 71.0179 49.768C70.9859 48.936 70.7939 48.152 70.4419 47.416C70.1219 46.68 69.7059 45.976 69.1939 45.304C68.6819 44.6 68.2019 43.992 67.7539 43.48C66.7619 45.368 65.7699 46.936 64.7779 48.184C63.8179 49.432 62.7619 50.616 61.6099 51.736C61.0339 52.312 60.4259 52.6 59.7859 52.6C59.2739 52.6 58.8579 52.424 58.5379 52.072C58.2179 51.688 58.0579 51.224 58.0579 50.68C58.0579 50.04 58.2819 49.448 58.7299 48.904L59.3539 48.136C61.1139 45.96 62.4419 44.168 63.3379 42.76C63.8819 41.832 64.5219 40.6 65.2579 39.064C65.9939 37.496 66.7139 35.88 67.4179 34.216C68.0259 32.808 69.2899 32.104 71.2099 32.104C72.1059 32.104 72.7299 32.184 73.0819 32.344C73.4339 32.504 73.6099 32.76 73.6099 33.112C73.6099 33.304 73.5459 33.608 73.4179 34.024C73.2899 34.44 73.1139 34.856 72.8899 35.272C72.3139 36.424 72.0259 37.4 72.0259 38.2C72.0259 38.68 72.1859 39.208 72.5059 39.784C72.8579 40.36 73.3859 41.08 74.0899 41.944C75.1139 43.288 75.8819 44.44 76.3939 45.4C76.9379 46.328 77.2099 47.352 77.2099 48.472C77.2099 48.792 77.1779 49.24 77.1139 49.816C78.6819 49.208 80.5219 47.592 82.6339 44.968C83.0179 44.52 83.4499 44.296 83.9299 44.296C84.3459 44.296 84.6659 44.488 84.8899 44.872C85.1459 45.256 85.2739 45.784 85.2739 46.456C85.2739 47.672 84.9699 48.664 84.3619 49.432C82.7619 51.416 81.2259 52.776 79.7539 53.512C78.3139 54.216 76.5219 54.6 74.3779 54.664C73.0979 55.752 71.5779 56.296 69.8179 56.296ZM109.118 44.296C109.534 44.296 109.854 44.488 110.078 44.872C110.334 45.256 110.462 45.784 110.462 46.456C110.462 47.736 110.158 48.728 109.55 49.432C108.11 51.192 106.654 52.6 105.182 53.656C103.71 54.712 101.966 55.24 99.9503 55.24C97.4863 55.24 95.5023 54.536 93.9983 53.128C92.4943 51.72 91.7423 49.848 91.7423 47.512C91.7423 46.264 92.3823 45.368 93.6623 44.824C95.0703 44.216 96.0783 43.576 96.6863 42.904C97.2943 42.2 97.5983 41.352 97.5983 40.36C97.5983 39.784 97.4703 39.352 97.2143 39.064C96.9903 38.776 96.7023 38.632 96.3503 38.632C95.4863 38.632 94.5263 39.256 93.4703 40.504C92.4463 41.752 91.4863 43.368 90.5903 45.352C89.6943 47.304 88.9903 49.32 88.4783 51.4C88.1263 52.904 87.7103 53.928 87.2303 54.472C86.7823 54.984 86.0623 55.24 85.0703 55.24C84.0783 55.24 83.3423 54.888 82.8623 54.184C82.4143 53.448 82.1103 52.328 81.9503 50.824C81.7903 49.32 81.7103 47.112 81.7103 44.2C81.7103 39.272 82.2063 34.136 83.1983 28.792C84.2223 23.448 85.7103 18.968 87.6623 15.352C89.6463 11.704 92.0143 9.88 94.7663 9.88C96.2383 9.88 97.4223 10.52 98.3183 11.8C99.2463 13.048 99.7103 14.68 99.7103 16.696C99.7103 19.928 98.7663 23.288 96.8783 26.776C94.9903 30.232 91.9183 34.28 87.6623 38.92C87.5663 40.584 87.5183 42.296 87.5183 44.056C89.0543 40.056 90.8143 37.16 92.7983 35.368C94.7823 33.544 96.6383 32.632 98.3663 32.632C99.9663 32.632 101.246 33.176 102.206 34.264C103.198 35.352 103.694 36.696 103.694 38.296C103.694 40.056 103.246 41.672 102.35 43.144C101.454 44.616 99.9183 45.928 97.7423 47.08C97.8703 47.944 98.2543 48.648 98.8943 49.192C99.5663 49.704 100.366 49.96 101.294 49.96C102.286 49.96 103.246 49.576 104.174 48.808C105.102 48.04 106.318 46.76 107.822 44.968C108.206 44.52 108.638 44.296 109.118 44.296ZM93.7583 14.632C93.1823 14.632 92.5423 15.464 91.8383 17.128C91.1343 18.76 90.4463 20.984 89.7743 23.8C89.1343 26.584 88.6063 29.624 88.1903 32.92C90.1743 30.584 91.8063 28.04 93.0863 25.288C94.3983 22.536 95.0543 20.04 95.0543 17.8C95.0543 16.776 94.9423 15.992 94.7183 15.448C94.4943 14.904 94.1743 14.632 93.7583 14.632ZM143.793 26.392C143.793 29.112 143.089 31.608 141.681 33.88C140.273 36.152 138.225 38.008 135.537 39.448C132.849 40.888 129.649 41.736 125.937 41.992L123.873 53.56C123.073 58.008 120.897 60.232 117.345 60.232C115.393 60.232 113.585 59.656 111.921 58.504C110.289 57.352 108.977 55.592 107.985 53.224C106.993 50.856 106.497 47.944 106.497 44.488C106.497 37.992 107.537 32.488 109.617 27.976C111.729 23.432 114.545 20.04 118.065 17.8C121.617 15.528 125.521 14.392 129.777 14.392C132.785 14.392 135.329 14.92 137.409 15.976C139.521 17.032 141.105 18.472 142.161 20.296C143.249 22.088 143.793 24.12 143.793 26.392ZM126.801 37.048C133.361 36.216 136.641 32.808 136.641 26.824C136.641 24.712 135.937 23 134.529 21.688C133.153 20.344 131.009 19.672 128.097 19.672C124.801 19.672 121.921 20.712 119.457 22.792C117.025 24.872 115.137 27.768 113.793 31.48C112.481 35.16 111.825 39.368 111.825 44.104C111.825 46.088 112.017 47.848 112.401 49.384C112.817 50.92 113.329 52.12 113.937 52.984C114.577 53.816 115.185 54.232 115.761 54.232C116.561 54.232 117.169 53.128 117.585 50.92L119.169 41.848C117.921 41.656 117.377 41.576 117.537 41.608C116.577 41.448 115.953 41.16 115.665 40.744C115.377 40.296 115.233 39.736 115.233 39.064C115.233 38.36 115.425 37.8 115.809 37.384C116.225 36.968 116.785 36.76 117.489 36.76C117.809 36.76 118.049 36.776 118.209 36.808C118.977 36.936 119.569 37.016 119.985 37.048C120.401 34.552 120.993 31.208 121.761 27.016C121.953 25.928 122.385 25.16 123.057 24.712C123.761 24.232 124.577 23.992 125.505 23.992C126.561 23.992 127.313 24.2 127.761 24.616C128.241 25 128.481 25.624 128.481 26.488C128.481 27 128.449 27.416 128.385 27.736L126.801 37.048ZM163.41 44.296C163.826 44.296 164.146 44.488 164.37 44.872C164.626 45.256 164.754 45.784 164.754 46.456C164.754 47.736 164.45 48.728 163.842 49.432C162.466 51.128 160.962 52.52 159.33 53.608C157.73 54.696 155.906 55.24 153.858 55.24C151.042 55.24 148.946 53.96 147.57 51.4C146.226 48.84 145.554 45.528 145.554 41.464C145.554 37.56 146.05 33.112 147.042 28.12C148.066 23.128 149.554 18.84 151.506 15.256C153.49 11.672 155.842 9.88 158.562 9.88C160.098 9.88 161.298 10.6 162.162 12.04C163.058 13.448 163.506 15.48 163.506 18.136C163.506 21.944 162.45 26.36 160.338 31.384C158.226 36.408 155.362 41.384 151.746 46.312C151.97 47.624 152.338 48.568 152.85 49.144C153.362 49.688 154.034 49.96 154.866 49.96C156.178 49.96 157.33 49.592 158.322 48.856C159.314 48.088 160.578 46.792 162.114 44.968C162.498 44.52 162.93 44.296 163.41 44.296ZM157.506 14.632C156.77 14.632 155.938 15.96 155.01 18.616C154.082 21.272 153.266 24.568 152.562 28.504C151.858 32.44 151.474 36.216 151.41 39.832C153.682 36.088 155.49 32.344 156.834 28.6C158.178 24.824 158.85 21.384 158.85 18.28C158.85 15.848 158.402 14.632 157.506 14.632ZM166.31 55.24C164.326 55.24 162.742 54.52 161.558 53.08C160.374 51.64 159.782 49.752 159.782 47.416C159.782 44.856 160.374 42.44 161.558 40.168C162.742 37.864 164.31 36.024 166.262 34.648C168.246 33.24 170.342 32.536 172.55 32.536C173.254 32.536 173.718 32.68 173.942 32.968C174.198 33.224 174.406 33.704 174.566 34.408C175.238 34.28 175.942 34.216 176.678 34.216C178.246 34.216 179.03 34.776 179.03 35.896C179.03 36.568 178.79 38.168 178.31 40.696C177.574 44.376 177.206 46.936 177.206 48.376C177.206 48.856 177.318 49.24 177.542 49.528C177.798 49.816 178.118 49.96 178.502 49.96C179.11 49.96 179.846 49.576 180.71 48.808C181.574 48.008 182.742 46.728 184.214 44.968C184.598 44.52 185.03 44.296 185.51 44.296C185.926 44.296 186.246 44.488 186.47 44.872C186.726 45.256 186.854 45.784 186.854 46.456C186.854 47.736 186.55 48.728 185.942 49.432C184.63 51.064 183.238 52.44 181.766 53.56C180.294 54.68 178.87 55.24 177.494 55.24C176.438 55.24 175.462 54.888 174.566 54.184C173.702 53.448 173.046 52.456 172.598 51.208C170.934 53.896 168.838 55.24 166.31 55.24ZM168.038 50.392C168.742 50.392 169.414 49.976 170.054 49.144C170.694 48.312 171.158 47.208 171.446 45.832L173.222 37C171.878 37.032 170.63 37.544 169.478 38.536C168.358 39.496 167.462 40.776 166.79 42.376C166.118 43.976 165.782 45.672 165.782 47.464C165.782 48.456 165.974 49.192 166.358 49.672C166.774 50.152 167.334 50.392 168.038 50.392ZM186.36 55.24C185.144 55.24 184.28 54.6 183.768 53.32C183.288 52.04 183.048 49.992 183.048 47.176C183.048 43.016 183.64 39.064 184.824 35.32C185.112 34.392 185.576 33.72 186.216 33.304C186.888 32.856 187.816 32.632 189 32.632C189.64 32.632 190.088 32.712 190.344 32.872C190.6 33.032 190.728 33.336 190.728 33.784C190.728 34.296 190.488 35.448 190.008 37.24C189.688 38.52 189.432 39.64 189.24 40.6C189.048 41.56 188.888 42.744 188.76 44.152C189.816 41.4 191 39.16 192.312 37.432C193.624 35.704 194.904 34.472 196.152 33.736C197.432 33 198.6 32.632 199.656 32.632C201.736 32.632 202.776 33.672 202.776 35.752C202.776 37 202.424 39.256 201.72 42.52C201.112 45.304 200.808 47.144 200.808 48.04C200.808 49.32 201.272 49.96 202.2 49.96C202.84 49.96 203.592 49.576 204.456 48.808C205.352 48.008 206.536 46.728 208.008 44.968C208.392 44.52 208.824 44.296 209.304 44.296C209.72 44.296 210.04 44.488 210.264 44.872C210.52 45.256 210.648 45.784 210.648 46.456C210.648 47.736 210.344 48.728 209.736 49.432C208.36 51.128 206.872 52.52 205.272 53.608C203.704 54.696 201.912 55.24 199.896 55.24C198.264 55.24 197.032 54.776 196.2 53.848C195.368 52.888 194.952 51.512 194.952 49.72C194.952 48.824 195.176 47.224 195.624 44.92C196.04 42.904 196.248 41.512 196.248 40.744C196.248 40.232 196.072 39.976 195.72 39.976C195.304 39.976 194.712 40.52 193.944 41.608C193.208 42.664 192.44 44.072 191.64 45.832C190.872 47.592 190.248 49.448 189.768 51.4C189.416 52.904 189 53.928 188.52 54.472C188.072 54.984 187.352 55.24 186.36 55.24ZM210.173 55.24C208.957 55.24 208.093 54.6 207.581 53.32C207.101 52.04 206.861 49.992 206.861 47.176C206.861 43.016 207.453 39.064 208.637 35.32C208.925 34.392 209.389 33.72 210.029 33.304C210.701 32.856 211.629 32.632 212.813 32.632C213.453 32.632 213.901 32.712 214.157 32.872C214.413 33.032 214.541 33.336 214.541 33.784C214.541 34.296 214.301 35.448 213.821 37.24C213.501 38.52 213.245 39.64 213.053 40.6C212.861 41.56 212.701 42.744 212.573 44.152C213.629 41.4 214.813 39.16 216.125 37.432C217.437 35.704 218.717 34.472 219.965 33.736C221.245 33 222.413 32.632 223.469 32.632C225.549 32.632 226.589 33.672 226.589 35.752C226.589 37 226.237 39.256 225.533 42.52C224.925 45.304 224.621 47.144 224.621 48.04C224.621 49.32 225.085 49.96 226.013 49.96C226.653 49.96 227.405 49.576 228.269 48.808C229.165 48.008 230.349 46.728 231.821 44.968C232.205 44.52 232.637 44.296 233.117 44.296C233.533 44.296 233.853 44.488 234.077 44.872C234.333 45.256 234.461 45.784 234.461 46.456C234.461 47.736 234.157 48.728 233.549 49.432C232.173 51.128 230.685 52.52 229.085 53.608C227.517 54.696 225.725 55.24 223.709 55.24C222.077 55.24 220.845 54.776 220.013 53.848C219.181 52.888 218.765 51.512 218.765 49.72C218.765 48.824 218.989 47.224 219.437 44.92C219.853 42.904 220.061 41.512 220.061 40.744C220.061 40.232 219.885 39.976 219.533 39.976C219.117 39.976 218.525 40.52 217.757 41.608C217.021 42.664 216.253 44.072 215.453 45.832C214.685 47.592 214.061 49.448 213.581 51.4C213.229 52.904 212.813 53.928 212.333 54.472C211.885 54.984 211.165 55.24 210.173 55.24ZM251.985 44.296C252.401 44.296 252.721 44.488 252.945 44.872C253.201 45.256 253.329 45.784 253.329 46.456C253.329 47.736 253.025 48.728 252.417 49.432C251.233 50.872 249.553 52.2 247.377 53.416C245.233 54.632 242.929 55.24 240.465 55.24C237.105 55.24 234.497 54.328 232.641 52.504C230.785 50.68 229.857 48.184 229.857 45.016C229.857 42.808 230.321 40.76 231.249 38.872C232.177 36.952 233.457 35.432 235.089 34.312C236.753 33.192 238.625 32.632 240.705 32.632C242.561 32.632 244.049 33.192 245.169 34.312C246.289 35.4 246.849 36.888 246.849 38.776C246.849 40.984 246.049 42.888 244.449 44.488C242.881 46.056 240.209 47.304 236.433 48.232C237.233 49.704 238.753 50.44 240.993 50.44C242.433 50.44 244.065 49.944 245.889 48.952C247.745 47.928 249.345 46.6 250.689 44.968C251.073 44.52 251.505 44.296 251.985 44.296ZM239.889 37.336C238.705 37.336 237.697 38.024 236.865 39.4C236.065 40.776 235.665 42.44 235.665 44.392L235.665 44.488C237.553 44.04 239.041 43.368 240.129 42.472C241.217 41.576 241.761 40.536 241.761 39.352C241.761 38.744 241.585 38.264 241.233 37.912C240.913 37.528 240.465 37.336 239.889 37.336ZM268.813 39.208C269.517 39.208 270.109 39.464 270.589 39.976C271.101 40.456 271.357 41.064 271.357 41.8C271.357 42.216 271.261 42.664 271.069 43.144C270.557 44.328 269.837 45.32 268.909 46.12C267.981 46.92 266.957 47.32 265.837 47.32C264.941 47.32 264.173 47 263.533 46.36C262.925 45.72 262.621 44.856 262.621 43.768C262.621 43.16 262.653 42.504 262.717 41.8C262.781 41.288 262.813 40.936 262.813 40.744C262.813 40.488 262.749 40.296 262.621 40.168C262.525 40.04 262.397 39.976 262.237 39.976C261.789 39.976 261.181 40.52 260.413 41.608C259.645 42.664 258.877 44.072 258.109 45.832C257.341 47.592 256.717 49.448 256.237 51.4C255.885 52.936 255.485 53.96 255.037 54.472C254.589 54.984 253.853 55.24 252.829 55.24C251.613 55.24 250.749 54.6 250.237 53.32C249.757 52.04 249.517 49.992 249.517 47.176C249.517 43.016 250.109 39.064 251.293 35.32C251.581 34.392 252.045 33.72 252.685 33.304C253.357 32.856 254.285 32.632 255.469 32.632C256.109 32.632 256.557 32.712 256.813 32.872C257.069 33.032 257.197 33.336 257.197 33.784C257.197 34.296 256.957 35.448 256.477 37.24C256.157 38.52 255.901 39.64 255.709 40.6C255.517 41.56 255.357 42.744 255.229 44.152C256.285 41.4 257.469 39.16 258.781 37.432C260.093 35.704 261.373 34.472 262.621 33.736C263.869 33 265.005 32.632 266.029 32.632C266.957 32.632 267.661 32.904 268.141 33.448C268.653 33.96 268.909 34.728 268.909 35.752C268.909 36.36 268.733 37.512 268.381 39.208L268.813 39.208Z" fill="#011638"/>
</svg>
